<?xml version="1.0" encoding="UTF-8" standalone="no"?>
<svg
   xmlns:dc="http://purl.org/dc/elements/1.1/"
   xmlns:cc="http://creativecommons.org/ns#"
   xmlns:rdf="http://www.w3.org/1999/02/22-rdf-syntax-ns#"
   xmlns:svg="http://www.w3.org/2000/svg"
   xmlns="http://www.w3.org/2000/svg"
   xmlns:sodipodi="http://sodipodi.sourceforge.net/DTD/sodipodi-0.dtd"
   xmlns:inkscape="http://www.inkscape.org/namespaces/inkscape"
   width="1994.962"
   height="240"
   viewBox="0 0 1994.962 240"
   version="1.1"
   id="svg154"
   sodipodi:docname="logo hyrome.svg"
   inkscape:version="1.0.2 (e86c870879, 2021-01-15)">
  <metadata
     id="metadata160">
    <rdf:RDF>
      <cc:Work
         rdf:about="">
        <dc:format>image/svg+xml</dc:format>
        <dc:type
           rdf:resource="http://purl.org/dc/dcmitype/StillImage" />
        <dc:title></dc:title>
      </cc:Work>
    </rdf:RDF>
  </metadata>
  <defs
     id="defs158" />
  <sodipodi:namedview
     pagecolor="#ffffff"
     bordercolor="#666666"
     borderopacity="1"
     objecttolerance="10"
     gridtolerance="10"
     guidetolerance="10"
     inkscape:pageopacity="0"
     inkscape:pageshadow="2"
     inkscape:window-width="1920"
     inkscape:window-height="1016"
     id="namedview156"
     showgrid="false"
     inkscape:zoom="1.7253461"
     inkscape:cx="1594.7932"
     inkscape:cy="43.904963"
     inkscape:window-x="0"
     inkscape:window-y="27"
     inkscape:window-maximized="1"
     inkscape:current-layer="svg154" />
  <path
     d="M634.489 27.775h-4.033V134.48h58.778v-3.958H634.49V27.775zm81.39 62.586l-36.937-62.586h-5.277l40.233 66.177v40.528h3.959V93.952l40.233-66.177h-4.836l-37.375 62.586zm62.441-48.368c6.378-7.817 14.744-11.727 25.103-11.727 10.161 0 18.101 2.553 23.817 7.658 5.715 5.108 9.135 12.57 10.261 22.39h3.956c-1.026-10.943-4.836-19.347-11.431-25.21-6.596-5.864-15.465-8.796-26.603-8.796-7.622 0-14.377 1.955-20.264 5.865-5.888 3.91-10.421 9.443-13.594 16.598-3.179 7.16-4.764 15.282-4.764 24.368v16.49c.046 9.087 1.685 17.16 4.91 24.22 3.224 7.063 7.755 12.51 13.594 16.345 5.839 3.835 12.542 5.751 20.118 5.751 11.236 0 20.128-2.942 26.674-8.83s10.334-14.328 11.36-25.32h-3.956c-1.026 10.064-4.41 17.614-10.151 22.644-5.741 5.034-13.717 7.55-23.927 7.55-6.842 0-12.912-1.808-18.212-5.423-5.303-3.615-9.369-8.66-12.204-15.133-2.832-6.475-4.25-13.912-4.25-22.316V73.432c0-13.143 3.188-23.622 9.563-31.44zm83.332 92.487h64.932v-3.958H865.61V81.567h53.499V77.61H865.61V31.73h60.974v-3.956h-64.932V134.48zM908.116 0h-4.836l-13.85 19.456 4.397.038L908.117 0zm34.487 134.48h64.932v-3.958h-60.974V81.567h53.499V77.61H946.56V31.73h60.974v-3.956h-64.932V134.48zM1106.92 33.637c-6.696-3.907-14.171-5.862-22.426-5.862h-29.533V134.48h29.902c8.255-.048 15.73-2.075 22.421-6.082 6.696-4.005 11.909-9.577 15.65-16.709 3.734-7.134 5.607-15.146 5.607-24.04V73.8c-.102-8.746-2.052-16.647-5.864-23.707s-9.066-12.545-15.757-16.455zm17.66 54.453c-.046 7.963-1.806 15.208-5.274 21.73-3.469 6.523-8.271 11.605-14.402 15.243-6.132 3.64-12.935 5.459-20.41 5.459h-25.578v-98.79h26.162c7.378.1 14.11 1.993 20.195 5.68 6.08 3.69 10.821 8.783 14.218 15.281 3.39 6.498 5.09 13.73 5.09 21.693V88.09zm24.084 46.39h64.93v-3.958h-60.974V81.567h53.499V77.61h-53.499V31.73h60.974v-3.956h-64.93V134.48zm116.382-106.705h-4.028V134.48h58.773v-3.958h-54.745V27.775zm45.771 2.712v-8.576h-3.955l-.072 10.115c-.344 5.424-2.494 10.675-6.45 15.757l2.71 2.345c4.986-5.326 7.572-11.873 7.767-19.64zm89.6 47.124h-68.158V27.775h-3.956V134.48h3.956V81.567h68.157v52.913h3.956V27.775h-3.956v49.836zm56.694 12.75l-36.936-62.586h-5.28l40.236 66.177v40.528h3.956V93.952l40.235-66.177h-4.838l-37.373 62.586zm117.039-12.714c4.52-5.447 6.782-11.811 6.782-19.092 0-9.477-3.165-16.978-9.491-22.498s-14.844-8.282-25.541-8.282h-34.007V134.48h3.96V88.822h37.009l28.363 45.658h4.176v-1.026l-28.506-45.656c6.983-1.321 12.734-4.702 17.255-10.151zm-24.659 7.219h-33.637V31.73h29.753c9.723 0 17.378 2.396 22.976 7.183 5.592 4.79 8.389 11.337 8.389 19.641 0 7.573-2.53 13.85-7.584 18.835-5.059 4.985-11.688 7.476-19.897 7.476zm112.867-52.73c-6.131-3.886-13.181-5.828-21.144-5.828-7.912 0-14.936 1.942-21.067 5.829-6.131 3.884-10.846 9.392-14.146 16.526-3.299 7.132-4.946 15.292-4.946 24.476v15.39c0 14.512 3.71 26.041 11.14 34.592 7.424 8.55 17.146 12.824 29.168 12.824 7.963 0 14.997-1.942 21.108-5.826 6.106-3.884 10.805-9.379 14.104-16.488s4.946-15.282 4.946-24.514V73.139c0-9.135-1.662-17.283-4.981-24.44-3.325-7.158-8.05-12.678-14.182-16.562zm15.208 56.393c0 13.438-3.248 24.038-9.749 31.806-6.495 7.77-15.315 11.654-26.454 11.654-7.332 0-13.73-1.76-19.205-5.277-5.47-3.517-9.681-8.537-12.637-15.061-2.96-6.521-4.438-14.033-4.438-22.534v-15.61c0-13.338 3.274-23.88 9.82-31.624 6.547-7.743 15.32-11.617 26.311-11.617 11.139 0 19.984 3.897 26.531 11.691s9.82 18.137 9.82 31.036V88.53zm73.4 40.161L1707.07 27.775h-5.644V134.48h3.956V34.15l44.047 100.33h3.15l44.264-100.843V134.48h3.956V27.775h-5.788l-44.042 100.915zm139.578-96.959v-3.956h-64.93V134.48h64.93v-3.958h-60.974V81.567h53.499V77.61h-53.499V31.73h60.974z"
     id="path146" />
  <path
     d="M639.545 193.418h-9.468v45.95h29.57v-7.603h-20.102v-38.347zm35.8 20.702l-9.5-20.702h-10.381l15.084 29.286v16.665h9.625v-16.665l15.085-29.286h-10.351l-9.562 20.702zm37.047-10.174c1.568-2.263 3.928-3.397 7.086-3.397 2.901 0 5.064.673 6.485 2.007 1.419 1.334 2.245 3.488 2.476 6.454h9.469c-.506-5.136-2.379-9.122-5.619-11.96-3.24-2.842-7.511-4.263-12.811-4.263-3.83 0-7.191.897-10.085 2.698-2.893 1.801-5.118 4.382-6.675 7.748s-2.334 7.26-2.334 11.677v2.807c0 6.927 1.688 12.37 5.064 16.336 3.378 3.967 8.011 5.947 13.902 5.947 5.387 0 9.725-1.421 13.019-4.259 3.291-2.842 5.118-6.736 5.475-11.677h-9.467c-.21 2.796-1.036 4.864-2.478 6.198-1.442 1.339-3.625 2.006-6.55 2.006-3.24 0-5.61-1.144-7.116-3.438-1.503-2.293-2.255-5.926-2.255-10.892v-3.469c.041-4.756.847-8.265 2.414-10.523zm44.371 15.444h18.179v-7.353h-18.179v-10.949h21.27v-7.67h-30.739v45.95h30.803v-7.603h-21.334V219.39zm18.24-38.373h-9.94l-6.217 9.784h7.417l8.74-9.784zm21.347 38.373h18.178v-7.353H796.35v-10.949h21.27v-7.67h-30.74v45.95h30.804v-7.603H796.35V219.39zm76.48-24.08c-2.62-1.261-5.655-1.892-9.105-1.892h-17.927v45.95h9.469v-16.187h8.299c5.448 0 9.715-1.303 12.798-3.9 3.081-2.595 4.623-6.146 4.623-10.65 0-2.966-.705-5.614-2.114-7.938-1.41-2.324-3.425-4.12-6.044-5.382zm-3.377 18.43c-1.316 1.18-3.225 1.77-5.728 1.77h-8.458v-14.422h8.678c2.335.041 4.166.76 5.49 2.145 1.326 1.39 1.988 3.212 1.988 5.459 0 2.19-.656 3.874-1.97 5.049zm49.653-18.193c-2.978-1.837-6.38-2.76-10.21-2.76-3.83 0-7.232.923-10.21 2.76-2.976 1.842-5.28 4.484-6.911 7.922-1.63 3.443-2.445 7.424-2.445 11.944v2.273c.02 4.418.852 8.327 2.493 11.724 1.642 3.402 3.956 6.013 6.942 7.845 2.989 1.832 6.386 2.745 10.195 2.745 3.85 0 7.263-.924 10.241-2.776 2.976-1.852 5.264-4.484 6.863-7.89 1.6-3.408 2.398-7.374 2.398-11.9v-2.051c0-4.5-.816-8.471-2.445-11.914-1.631-3.438-3.935-6.08-6.91-7.922zm-.236 22.047c-.023 4.777-.885 8.41-2.588 10.903-1.704 2.493-4.146 3.74-7.322 3.74-3.24 0-5.723-1.293-7.447-3.884-1.727-2.586-2.589-6.224-2.589-10.918v-2.242c.02-4.772.893-8.4 2.62-10.872 1.724-2.468 4.176-3.705 7.352-3.705 3.2 0 5.66 1.252 7.386 3.756 1.724 2.504 2.588 6.162 2.588 10.98v2.242zm29.174-24.176h-9.469v45.95h29.571v-7.603h-20.102v-38.347zm35.8 20.702l-9.5-20.702h-10.382l15.085 29.286v16.665h9.625v-16.665l15.084-29.286h-10.35l-9.562 20.702zm44.89 13.859l-10.352-34.561h-10.51l15.938 45.95h9.877l16-45.95h-10.541l-10.413 34.56zm39.368-34.561l-17.106 45.95h10.066l3.156-9.465h16.603l3.186 9.466h10.067l-17.199-45.951h-8.773zm-1.324 28.814l5.71-17.198 5.773 17.198h-11.483zm44.289-28.814h-9.467v45.95h29.57v-7.603h-20.103v-38.347zm38.23 25.972h18.178v-7.353h-18.179v-10.949h21.272v-7.67h-30.738v45.95h30.8v-7.603h-21.334V219.39zm58.049 4.325l-18.46-30.297h-9.467v45.95h9.466v-30.235l18.43 30.236h9.466v-45.951h-9.435v30.297zm17.183-22.627h13.884v38.28h9.471v-38.28h14.074v-7.67h-37.43v7.67zm115.786 2.858c1.565-2.263 3.925-3.397 7.086-3.397 2.899 0 5.064.673 6.485 2.007 1.416 1.334 2.242 3.488 2.473 6.454h9.472c-.508-5.136-2.381-9.122-5.619-11.96-3.242-2.842-7.511-4.263-12.811-4.263-3.833 0-7.193.897-10.087 2.698s-5.116 4.382-6.675 7.748c-1.555 3.366-2.335 7.26-2.335 11.677v2.807c0 6.927 1.688 12.37 5.064 16.336 3.381 3.967 8.014 5.947 13.905 5.947 5.387 0 9.722-1.421 13.016-4.259 3.294-2.842 5.12-6.736 5.475-11.677h-9.466c-.21 2.796-1.037 4.864-2.479 6.198-1.441 1.339-3.622 2.006-6.546 2.006-3.243 0-5.613-1.144-7.117-3.438-1.503-2.293-2.257-5.926-2.257-10.892v-3.469c.04-4.756.846-8.265 2.416-10.523zm62.119 8.091h-18.461v-18.62h-9.471v45.952h9.471v-19.692h18.46v19.692h9.467v-45.951h-9.466v18.62zm29.727 7.353h18.179v-7.353h-18.179v-10.949h21.267v-7.67h-30.738v45.95h30.805v-7.603h-21.334V219.39zm53.581 7.357l-11.8-33.33h-12.376v45.952h9.471v-12.56l-.949-21.652 12.37 34.212h6.501l12.406-34.243-.949 21.683v12.56h9.502v-45.951h-12.437l-11.739 33.33zm35.562 12.622h9.471v-45.951h-9.471v45.95zm30.23-45.951h-9.466v45.95h29.568v-7.603h-20.102v-38.347zm37.522 0h-9.472v45.95h29.574v-7.603h-20.102v-38.347zm37.52 25.972h18.18v-7.353h-18.18v-10.949h21.268v-7.67h-30.739v45.95h30.806v-7.603h-21.334V219.39zm57.491 0h18.179v-7.353h-18.179v-10.949h21.273v-7.67H1674.6v45.95h30.8v-7.603h-21.334V219.39zm57.337 4.325l-18.46-30.297h-9.467v45.95h9.466v-30.235l18.43 30.236h9.471v-45.951h-9.44v30.297zm52.067-30.297l-17.106 45.95h10.067l3.155-9.465h16.603l3.186 9.466h10.067l-17.198-45.951h-8.774zm-1.324 28.814l5.71-17.198 5.773 17.198h-11.483zm62.042 1.483l-18.46-30.297h-9.467v45.95h9.466v-30.235l18.43 30.236h9.466v-45.951h-9.435v30.297zm38.747 1.513c0 2.294-.533 4.064-1.606 5.306-1.077 1.241-2.519 1.862-4.325 1.862-2.042 0-3.535-.539-4.484-1.61-.944-1.073-1.416-2.736-1.416-4.988h-9.533c0 4.525 1.36 8.02 4.074 10.492 2.709 2.473 6.5 3.71 11.36 3.71 2.965 0 5.628-.61 7.983-1.832 2.355-1.22 4.181-2.95 5.474-5.192 1.293-2.237 1.945-4.823 1.945-7.748v-31.81h-9.472v31.81zm48.486-29.681c-2.976-1.837-6.377-2.76-10.205-2.76-3.833 0-7.234.923-10.21 2.76-2.981 1.842-5.285 4.484-6.911 7.922-1.632 3.443-2.448 7.424-2.448 11.944v2.273c.02 4.418.852 8.327 2.494 11.724 1.642 3.402 3.956 6.013 6.942 7.845 2.986 1.832 6.388 2.745 10.195 2.745 3.848 0 7.265-.924 10.24-2.776 2.976-1.852 5.265-4.484 6.866-7.89 1.595-3.408 2.396-7.374 2.396-11.9v-2.051c0-4.5-.816-8.471-2.448-11.914-1.626-3.438-3.93-6.08-6.91-7.922zm-.236 22.047c-.02 4.777-.882 8.41-2.586 10.903-1.703 2.493-4.145 3.74-7.321 3.74-3.243 0-5.726-1.293-7.45-3.884-1.724-2.586-2.586-6.224-2.586-10.918v-2.242c.02-4.772.893-8.4 2.616-10.872 1.73-2.468 4.177-3.705 7.358-3.705 3.197 0 5.66 1.252 7.383 3.756 1.724 2.504 2.586 6.162 2.586 10.98v2.242zm44.279-24.176v30.58c-.087 5.597-2.791 8.398-8.112 8.398-2.545 0-4.54-.692-5.982-2.068-1.442-1.38-2.16-3.57-2.16-6.582v-30.328h-9.467v30.615c.062 4.961 1.673 8.866 4.828 11.708 3.156 2.838 7.414 4.259 12.781 4.259 5.449 0 9.743-1.462 12.889-4.387s4.72-6.9 4.72-11.929v-30.266h-9.497zm-712.08 32.326h31.863v-8.135h-31.862v8.135zM413.44 36.019c-36.265 0-65.664 29.4-65.664 65.665 0 36.265 29.399 65.664 65.664 65.664 36.266 0 65.665-29.399 65.665-65.664 0-36.266-29.4-65.665-65.665-65.665z"
     fill="#692e99"
     id="path148" />
  <circle
     cx="240.569"
     cy="101.684"
     r="65.664"
     fill="#a582c2"
     id="circle150" />
  <circle
     cx="65.664"
     cy="101.684"
     r="65.664"
     fill="#cbb6da"
     id="circle152" />
  <path
     style="fill:#ffffff;stroke-width:0.144898"
     d="M 630.58572,81.096845 V 27.774211 h 1.88368 1.88368 v 51.438954 51.438955 h 27.38581 27.38581 v 1.88368 1.88368 h -29.26949 -29.26949 z"
     id="path162" />
  <path
     style="fill:#ffffff;stroke-width:0.144898"
     d="m 713.90065,114.09747 -0.002,-20.322009 -18.19314,-29.921533 C 685.69961,47.397085 676.66943,32.545299 675.63877,30.849958 l -1.87392,-3.082437 2.55836,0.03957 2.55836,0.03957 18.42295,31.21586 c 10.13262,17.168723 18.48502,31.23452 18.56089,31.257325 0.0759,0.02281 8.54246,-14.040632 18.81463,-31.252084 l 18.67667,-31.29355 h 2.30593 c 1.26826,0 2.27794,0.0489 2.24373,0.108673 -0.0342,0.05977 -9.06885,14.926982 -20.07699,33.038247 l -20.01479,32.929572 v 20.284386 20.28439 h -1.95612 -1.95613 l -0.002,-20.32201 z"
     id="path164" />
  <path
     style="fill:#ffffff;stroke-width:0.144898"
     d="m 800.40672,135.78394 c -0.27893,-0.0325 -1.12659,-0.12874 -1.88368,-0.21392 -9.81519,-1.10423 -18.7234,-6.38065 -24.58843,-14.56396 -3.96557,-5.53305 -6.89153,-12.89144 -8.14869,-20.49282 -0.7598,-4.594127 -0.77109,-4.832824 -0.83911,-17.750063 -0.043,-8.173174 -0.0106,-12.933051 0.0986,-14.489846 0.37993,-5.412666 1.21957,-9.898512 2.7058,-14.456049 2.29134,-7.026386 5.54768,-12.557831 10.04753,-17.067394 7.44902,-7.465113 16.92943,-10.901635 28.37293,-10.284805 2.97384,0.160296 5.98778,0.540122 8.21772,1.03562 13.85561,3.078753 22.92187,12.310244 25.99261,26.466323 0.3684,1.698274 0.55531,2.838338 0.94986,5.79352 l 0.0629,0.47092 -1.91079,-5.9e-5 -1.9108,-6e-5 -0.33255,-2.195034 C 835.58987,47.14066 830.56917,39.03857 822.72108,34.605616 c -5.22494,-2.951283 -11.40381,-4.367674 -19.05503,-4.36801 -4.43411,-1.95e-4 -7.94539,0.537655 -11.49065,1.760113 -4.41614,1.52275 -8.12506,3.89884 -11.65139,7.464379 -1.884,1.904937 -2.80422,3.039334 -4.38873,5.410131 -3.98869,5.968035 -6.18599,12.698413 -7.19048,22.024567 -0.23666,2.197207 -0.34433,22.976707 -0.1359,26.226621 0.85808,13.379473 5.19102,23.762093 12.81407,30.705193 4.88071,4.44535 10.75331,7.1167 17.58982,8.00131 1.92848,0.24953 7.43531,0.21177 9.96029,-0.0683 14.73252,-1.63413 23.73144,-9.20107 27.16736,-22.84427 0.47109,-1.8706 0.94224,-4.47213 1.0956,-6.04951 l 0.10213,-1.05051 h 1.93378 1.93379 l -0.0656,0.39847 c -0.0361,0.21915 -0.13825,1.01791 -0.22704,1.775 -0.8651,7.3766 -3.70688,14.527 -7.77423,19.56129 -1.05285,1.30316 -3.37853,3.61799 -4.66645,4.64469 -4.93742,3.936 -11.27603,6.40537 -18.77673,7.31494 -1.76838,0.21444 -8.36102,0.40357 -9.48897,0.27222 z"
     id="path166" />
  <path
     style="fill:#ffffff;stroke-width:0.579594"
     d="M 861.79569,81.264675 V 28.231838 h 32.16746 32.16746 v 1.738781 1.738782 h -30.42867 -30.42868 v 23.183754 23.183754 h 26.66131 26.66132 v 1.738782 1.738781 h -26.66132 -26.66131 v 24.632738 24.63274 h 30.42868 30.42867 v 1.73878 1.73878 h -32.16746 -32.16746 z"
     id="path170" />
  <path
     style="fill:#ffffff;stroke-width:0.579594"
     d="m 896.746,9.7121834 c 6.14479,-8.75345283 6.5936,-9.2476102 8.42263,-9.27350158 1.06259,-0.0150416 1.84505,0.18425381 1.73879,0.44287925 -0.10626,0.25862543 -3.06219,4.41738343 -6.56873,9.24168493 -5.8878,8.100434 -6.51736,8.77389 -8.22944,8.803273 l -1.85391,0.03182 z"
     id="path172" />
  <path
     style="fill:#ffffff;stroke-width:0.579594"
     d="M 942.93883,81.264675 V 28.231838 h 32.16746 32.16751 v 1.738781 1.738782 H 976.84507 946.4164 v 23.183754 23.183754 h 26.66131 26.66132 v 1.738782 1.738781 H 973.07771 946.4164 v 24.632738 24.63274 h 30.42867 30.42873 v 1.73878 1.73878 h -32.16751 -32.16746 z"
     id="path174" />
  <path
     style="fill:#ffffff;stroke-width:0.579594"
     d="M 1055.38,81.319412 V 28.231838 h 17.1225 c 20.0904,0 23.2047,0.439254 31.5634,4.451766 4.7449,2.277743 6.2298,3.374704 10.74,7.934506 7.8506,7.936922 11.5276,15.776453 13.0417,27.80579 0.972,7.721953 0.4687,25.286753 -0.8905,31.075737 -3.9001,16.612063 -14.8084,28.482033 -30.4259,33.108243 -3.9892,1.18169 -5.8613,1.30871 -22.7491,1.54338 l -18.4021,0.25573 z m 37.5266,48.583248 c 15.0057,-3.09949 25.8385,-13.61718 30.3956,-29.51139 1.2231,-4.265681 1.3299,-5.773152 1.3344,-18.836798 0.01,-16.686094 -0.5789,-20.179095 -4.7839,-28.5811 -4.9706,-9.931496 -14.1854,-17.397575 -24.8339,-20.121012 -3.9128,-1.000708 -6.4411,-1.142959 -20.3151,-1.142959 h -15.8461 v 49.555274 49.555275 h 14.8041 c 11.2457,0 15.8715,-0.22048 19.2449,-0.91729 z"
     id="path176" />
  <path
     style="fill:#ffffff;stroke-width:0.579594"
     d="M 1148.6947,81.264675 V 28.231838 h 32.1674 32.1675 v 1.738781 1.738782 h -30.4287 -30.4287 v 23.183754 23.183754 h 26.9511 26.9511 v 1.738782 1.738781 h -26.9511 -26.9511 v 24.632738 24.63274 h 30.4287 30.4287 v 1.73878 1.73878 h -32.1675 -32.1674 z"
     id="path178" />
  <path
     style="fill:#ffffff;stroke-width:0.579594"
     d="M 1261.34,81.070286 V 28.037449 h 1.7388 1.7387 v 51.294056 51.294055 h 27.2409 27.241 v 1.73878 1.73878 h -28.9797 -28.9797 z"
     id="path180" />
  <path
     style="fill:#ffffff;stroke-width:0.579594"
     d="M 1328.5729,81.070286 V 28.037449 h 1.7387 1.7388 V 52.959985 77.88252 h 34.1961 34.196 V 52.959985 28.037449 h 1.7388 1.7388 v 53.032837 53.032834 h -1.7388 -1.7388 V 107.7316 81.360083 h -34.196 -34.1961 v 26.371517 26.37152 h -1.7388 -1.7387 z"
     id="path182" />
  <path
     style="fill:#ffffff;stroke-width:0.579594"
     d="m 1301.8077,48.550585 c -0.8561,-0.856052 -0.7985,-1.129428 0.7079,-3.361418 3.2364,-4.795507 4.1876,-8.159478 4.4812,-15.847632 l 0.271,-7.100025 h 1.6688 1.6689 l -0.01,5.071447 c -0.011,5.541113 -1.1021,11.700242 -2.6093,14.729667 -1.2225,2.45706 -4.5272,7.437201 -4.9361,7.438677 -0.1707,6.38e-4 -0.7298,-0.418206 -1.2423,-0.930716 z"
     id="path184" />
  <path
     style="fill:#ffffff;stroke-width:0.579594"
     d="m 1455.497,113.96224 -0.01,-20.140889 -18.6922,-30.718474 c -10.2806,-16.895161 -19.297,-31.696539 -20.0363,-32.891951 l -1.3441,-2.173477 h 2.2504 2.2504 l 18.4716,31.298068 c 10.1594,17.213937 18.6226,31.284697 18.8072,31.268358 0.1845,-0.01635 8.6816,-14.093012 18.8825,-31.281486 18.4026,-31.008394 18.5617,-31.2519 20.4307,-31.268356 1.036,-0.0091 1.8837,0.11048 1.8837,0.265781 0,0.1553 -8.8678,14.871948 -19.7062,32.703662 l -19.7062,32.421296 v 20.329178 20.32917 h -1.7388 -1.7388 z"
     id="path186" />
  <path
     style="fill:#ffffff;stroke-width:0.579594"
     d="M 1512.3041,81.025882 V 27.948641 l 21.0103,0.232145 c 19.7313,0.218013 21.2749,0.311439 25.3572,1.53476 2.3908,0.716438 5.7815,2.118066 7.5347,3.11473 4.3051,2.447236 9.2988,7.553047 11.1982,11.4495 4.6138,9.464964 4.0603,21.701706 -1.3641,30.154783 -3.7254,5.805525 -11.4726,11.414589 -17.2722,12.505274 -1.4057,0.264342 -1.865,0.619656 -1.6858,1.304052 0.1876,0.716459 22.591,36.966835 27.561,44.595695 0.866,1.32936 0.8516,1.34253 -1.2699,1.15919 l -2.1459,-0.18544 -14.0417,-22.60416 -14.0417,-22.604164 -18.6812,-0.152925 -18.6813,-0.152932 v 22.901991 22.90198 h -1.7388 -1.7388 z m 40.5716,3.849944 c 5.9878,-0.633016 10.3568,-2.209637 14.1862,-5.119348 6.1125,-4.644488 9.4208,-10.931733 9.9697,-18.946812 1.0215,-14.913883 -7.0268,-25.315343 -21.958,-28.378236 -3.4905,-0.716022 -8.275,-0.916418 -21.8797,-0.916418 h -17.4122 V 58.466126 85.41724 l 16.0837,-0.0103 c 8.8461,-0.0057 18.3007,-0.244666 21.0103,-0.531117 z"
     id="path188" />
  <path
     style="fill:#ffffff;stroke-width:0.579594"
     d="m 1630.8449,134.30876 c -6.55,-1.71599 -10.8079,-4.26283 -16.4134,-9.8176 -4.2469,-4.20839 -5.3887,-5.77337 -7.6281,-10.45534 -4.3667,-9.12966 -5.61,-16.438854 -5.6196,-33.036851 -0.01,-16.227336 1.4485,-24.487142 5.9335,-33.616443 3.472,-7.067324 9.8459,-13.448334 16.6556,-16.6742 2.7096,-1.283579 6.361,-2.684297 8.1143,-3.112706 4.4419,-1.085372 15.0672,-0.954521 19.5352,0.240577 13.9347,3.727288 23.589,14.125388 28.1034,30.268815 1.2167,4.35063 1.2968,5.763353 1.2989,22.893957 0,17.959539 -0.023,18.349095 -1.5365,23.893081 -3.5441,12.98196 -11.6932,23.19191 -22.0562,27.63397 -7.1182,3.05126 -18.5874,3.82612 -26.3871,1.78274 z m 20.375,-3.22429 c 11.1917,-2.88734 20.0617,-11.61838 23.811,-23.4379 2.354,-7.42088 2.7767,-12.422287 2.5031,-29.615488 -0.2209,-13.887533 -0.4065,-16.432419 -1.4864,-20.382047 -4.7412,-17.340831 -17.7361,-27.634197 -34.8869,-27.634197 -10.1646,0 -17.5825,2.983661 -24.4744,9.844259 -6.7068,6.676355 -10.128,14.456606 -11.4638,26.070432 -0.7301,6.34671 -0.7301,23.792171 0,30.13888 1.0789,9.380331 4.0514,17.386401 8.7816,23.652261 2.4276,3.2157 7.9795,7.67081 11.4857,9.21669 7.0787,3.121 18.3194,4.059 25.7301,2.14711 z"
     id="path190" />
  <path
     style="fill:#ffffff;stroke-width:0.579594"
     d="M 1701.4385,81.288766 V 28.255929 l 2.753,0.0061 2.7531,0.0061 21.6861,49.983885 c 11.9274,27.491136 21.8665,50.194456 22.0868,50.451826 0.2204,0.25736 7.7795,-16.43494 16.7982,-37.094008 9.0186,-20.659072 18.9073,-43.299926 21.9748,-50.313012 l 5.5773,-12.751064 2.7406,-0.176655 2.7406,-0.176656 V 81.25701 134.3216 h -1.7388 -1.7388 V 83.78102 c 0,-27.797321 -0.2202,-50.292808 -0.4894,-49.98997 -0.2692,0.302838 -10.3481,23.046101 -22.3975,50.540584 -19.4949,44.483536 -22.0486,49.989966 -23.1834,49.989966 -1.1349,0 -3.6954,-5.52122 -23.2455,-50.122915 -12.0836,-27.567604 -22.1658,-50.128295 -22.4049,-50.134868 -0.2391,-0.0066 -0.4347,22.548741 -0.4347,50.122918 V 134.3216 h -1.7388 -1.7387 z"
     id="path192" />
  <path
     style="fill:#ffffff;stroke-width:0.579594"
     d="M 1826.0511,81.288766 V 28.255929 h 32.1675 32.1675 v 1.738781 1.738782 h -30.4287 -30.4287 V 54.917246 78.101 h 26.6613 26.6613 v 1.738781 1.738782 h -26.6613 -26.6613 v 24.632737 24.63274 h 30.4287 30.4287 v 1.73878 1.73878 h -32.1675 -32.1675 z"
     id="path194" />
</svg>
